<?xml version="1.0" encoding="UTF-8"?>
<!DOCTYPE svg  PUBLIC '-//W3C//DTD SVG 1.1//EN'  'http://www.w3.org/Graphics/SVG/1.1/DTD/svg11.dtd'>
<svg clip-rule="evenodd" fill-rule="evenodd" stroke-linejoin="round" stroke-miterlimit="2" version="1.1" viewBox="0 0 24 24" xml:space="preserve" xmlns="http://www.w3.org/2000/svg"><path d="m4 6.75h16c0.414 0 0.75-0.336 0.75-0.75s-0.336-0.75-0.75-0.75h-16c-0.414 0-0.75 0.336-0.75 0.75s0.336 0.75 0.75 0.75z"/><path d="m4 12.75h16c0.414 0 0.75-0.336 0.75-0.75s-0.336-0.75-0.75-0.75h-16c-0.414 0-0.75 0.336-0.75 0.75s0.336 0.75 0.75 0.75z"/><path d="m4 18.75h16c0.414 0 0.75-0.336 0.75-0.75s-0.336-0.75-0.75-0.75h-16c-0.414 0-0.75 0.336-0.75 0.75s0.336 0.75 0.75 0.75z"/></svg>
